<svg xmlns="http://www.w3.org/2000/svg" xml:space="preserve" width="641.212" height="908.504" style="shape-rendering:geometricPrecision;text-rendering:geometricPrecision;image-rendering:optimizeQuality;fill-rule:evenodd;clip-rule:evenodd" viewBox="0 0 2761.2 3912.22"><defs><style>.fil1,.fil2,.fil3{fill:#fefefe;fill-rule:nonzero}.fil2,.fil3{fill:#f17594}.fil3{fill:#413e5d}</style></defs><g id="Capa_x0020_1"><path d="M2761.2 3912.22H0V361.09h2761.2z" style="fill:#5dbf8b;fill-rule:nonzero"/><path d="M2516.95 3668.05H244.26V573.41h2272.69z" class="fil1"/><path d="M874.81 1369.98H556.23V1051.4h318.58z" class="fil2"/><path d="m693.95 1284.7-10.02-3.53-71.35-57.79c-6.85-5.53-7.91-15.55-2.36-22.35 5.51-6.86 15.56-7.9 22.4-2.41l60.12 48.69 104.36-105.87c6.18-6.29 16.25-6.34 22.54-.16 6.26 6.17 6.31 16.22.15 22.51l-114.5 116.17a15.924 15.924 0 0 1-11.34 4.74z" class="fil1"/><path d="M2204.99 1173.66H999.63v-85.28h1205.36zM1713.81 1332.99H999.63v-85.27h714.18z" class="fil3"/><path d="M609.31 1820.68h212.41v-212.4H609.31v212.4zm265.5 53.09H556.23v-318.62h318.58v318.62z" class="fil2"/><path d="M2204.99 1677.45H999.63v-85.27h1205.36zM1713.81 1836.79H999.63v-85.32h714.18z" class="fil3"/><path d="M609.31 2324.48h212.41v-212.43H609.31v212.43zm265.5 53.09H556.23v-318.62h318.58v318.62z" class="fil2"/><path d="M2204.99 2181.26H999.63v-85.27h1205.36zM1713.81 2340.59H999.63v-85.32h714.18z" class="fil3"/><path d="M609.31 2828.24h212.41v-212.4H609.31v212.4zm265.5 53.13H556.23v-318.62h318.58v318.62z" class="fil2"/><path d="M2204.99 2685.06H999.63v-85.32h1205.36zM1713.81 2844.35H999.63v-85.28h714.18zM1696.14 286.75C1691.89 127.71 1561.93 0 1401.84 0c-160.05 0-290.05 127.71-294.3 286.75H677.01v445.98h1449.66V286.75h-430.54z" class="fil3"/><path d="M1534.6 294.69c0 73.34-59.42 132.76-132.76 132.76-73.29 0-132.77-59.42-132.77-132.76 0-73.29 59.48-132.77 132.77-132.77 73.34 0 132.76 59.48 132.76 132.77z" style="fill:#b6b4d9;fill-rule:nonzero"/></g></svg>