<svg xmlns="http://www.w3.org/2000/svg" xml:space="preserve" width="775.544" height="757.478" style="shape-rendering:geometricPrecision;text-rendering:geometricPrecision;image-rendering:optimizeQuality;fill-rule:evenodd;clip-rule:evenodd" viewBox="0 0 6916.62 6755.52"><defs><style>.fil1{fill:#fefefe;fill-rule:nonzero}.fil2,.fil3,.fil5{fill:#f389a9;fill-rule:nonzero}.fil2,.fil3{fill:#ec567c}.fil2{fill:#413e5d}</style></defs><g id="Capa_x0020_1"><g id="_1838069563152"><path d="M5147.38 2910.83H1769.23V0h3378.15z" style="fill:#ffcd4e;fill-rule:nonzero"/><path d="M4776.18 692.23H2140.45V541.09h2635.73zM4776.18 1097.39H2140.45V946.25h2635.73zM4776.18 1502.55H2140.45v-151.21h2635.73z" class="fil1"/><path d="M364.04 2327.75v-36.09c0-36.26-29.39-65.65-65.66-65.65H65.64c-36.26 0-65.65 29.39-65.65 65.65v823.54c0 36.26 29.39 65.66 65.65 65.66h232.74c36.26 0 65.66-29.39 65.66-65.66v-36.14H498.3v-751.3H364.04zM6552.58 2327.75v-36.09c0-36.26 29.39-65.65 65.66-65.65h232.74c36.26 0 65.65 29.39 65.65 65.65v823.54c0 36.26-29.39 65.66-65.65 65.66h-232.74c-36.26 0-65.66-29.39-65.66-65.66v-36.14h-134.26v-751.3h134.26z" class="fil2"/><path d="M5872.26 2466.68H1044.37v-144.57h4827.89z" class="fil3"/><path d="M6418.43 2315.47v4250.51c0 104.52-84.97 189.54-189.54 189.54H687.96c-105.06 0-189.54-85.02-189.54-189.54V2315.47c0-110.26 89.28-200.02 199.55-200.02h444.98v795.37h1342.5v-48.64c0-157.14 127.46-284.59 284.53-284.59h1376.4c157.07 0 284.52 127.44 284.52 284.59v48.64h1342.99v-795.37h444.5c110.28 0 200.03 89.76 200.03 200.02z" style="fill:#f17594;fill-rule:nonzero"/><path d="M6418.43 6254.26v311.73c0 104.52-84.97 189.54-189.54 189.54H687.96c-105.06 0-189.54-85.02-189.54-189.54v-311.73h5920.01zM6418.43 2315.47v1312.94H498.42V2315.47c0-110.26 89.28-200.02 199.55-200.02h444.98v795.37h1342.5v-48.64c0-157.14 127.46-284.59 284.53-284.59h1376.4c157.07 0 284.52 127.44 284.52 284.59v48.64h1342.99v-795.37h444.5c110.28 0 200.03 89.76 200.03 200.02z" class="fil5"/><path d="M5978.68 6254.26H937.88V3628.42h5040.8z" class="fil3"/><path d="M1767.82 4216.9c0 143.03-115.96 258.99-258.99 258.99-143.03 0-258.99-115.96-258.99-258.99 0-143.03 115.96-258.99 258.99-258.99 143.03 0 258.99 115.96 258.99 258.99zM2547.62 4216.9c0 143.03-115.96 258.99-258.99 258.99-143.03 0-258.99-115.96-258.99-258.99 0-143.03 115.96-258.99 258.99-258.99 143.03 0 258.99 115.96 258.99 258.99zM3327.42 4216.9c0 143.03-115.96 258.99-259.04 258.99-143.05 0-258.99-115.96-258.99-258.99 0-143.03 115.94-258.99 258.99-258.99 143.08 0 259.04 115.96 259.04 258.99zM4107.23 4216.9c0 143.03-115.96 258.99-259.04 258.99-143.03 0-258.99-115.96-258.99-258.99 0-143.03 115.96-258.99 258.99-258.99 143.08 0 259.04 115.96 259.04 258.99zM4886.98 4216.9c0 143.03-115.96 258.99-258.99 258.99-143.03 0-258.99-115.96-258.99-258.99 0-143.03 115.96-258.99 258.99-258.99 143.03 0 258.99 115.96 258.99 258.99zM5666.78 4216.9c0 143.03-115.96 258.99-258.99 258.99-143.03 0-258.99-115.96-258.99-258.99 0-143.03 115.96-258.99 258.99-258.99 143.03 0 258.99 115.96 258.99 258.99zM2157.74 4990.91c0 143.03-115.96 258.99-259.04 258.99-143.03 0-258.99-115.96-258.99-258.99 0-143.03 115.96-258.99 258.99-258.99 143.08 0 259.04 115.96 259.04 258.99zM2937.5 4990.91c0 143.03-115.95 258.99-258.99 258.99-143.03 0-258.99-115.96-258.99-258.99 0-143.03 115.96-258.99 258.99-258.99 143.03 0 258.99 115.96 258.99 258.99zM3717.3 4990.91c0 143.03-115.96 258.99-258.99 258.99-143.03 0-258.99-115.96-258.99-258.99 0-143.03 115.95-258.99 258.99-258.99 143.03 0 258.99 115.96 258.99 258.99zM4497.1 4990.91c0 143.03-115.96 258.99-258.99 258.99-143.03 0-258.99-115.96-258.99-258.99 0-143.03 115.95-258.99 258.99-258.99 143.03 0 258.99 115.96 258.99 258.99zM5276.84 4990.91c0 143.03-115.94 258.99-258.99 258.99-143.03 0-258.97-115.96-258.97-258.99 0-143.03 115.94-258.99 258.97-258.99 143.05 0 258.99 115.96 258.99 258.99zM4846.68 6015.52H2069.87c-68.14 0-123.42-55.27-123.42-123.46v-254.44c0-68.14 55.28-123.41 123.42-123.41h2776.81c68.19 0 123.48 55.27 123.48 123.41v254.44c0 68.19-55.29 123.46-123.48 123.46z" class="fil1"/><path d="M1922.64 2910.83h-306.8v-795.38h306.8zM5302.15 2910.83h-306.76v-795.38h306.76zM4693.51 2910.83v164.85c0 107.47-87.2 194.69-194.69 194.69H2418.05c-107.54 0-194.71-87.22-194.71-194.69v-164.85h262.13v-48.64c0-157.19 127.33-284.59 284.53-284.59h1376.4c157.14 0 284.52 127.4 284.52 284.53v48.69h262.6z" class="fil2"/><path d="M1561.5 6015.52h-270.48c-63.71 0-115.37-51.66-115.37-115.42v-270.48c0-63.76 51.66-115.42 115.37-115.42h270.48c63.75 0 115.42 51.66 115.42 115.42v270.48c0 63.75-51.66 115.42-115.42 115.42zM5625.53 6015.52h-270.41c-63.75 0-115.43-51.66-115.43-115.42v-270.48c0-63.76 51.68-115.42 115.43-115.42h270.41c63.75 0 115.42 51.66 115.42 115.42v270.48c0 63.75-51.66 115.42-115.42 115.42z" class="fil1"/></g></g></svg>